<svg xmlns="http://www.w3.org/2000/svg" xmlns:svg="http://www.w3.org/2000/svg" xmlns:xlink="http://www.w3.org/1999/xlink" id="SVGRoot" width="256" height="256" version="1.1" viewBox="0 0 256 256"><defs id="defs840"><linearGradient id="linearGradient1522"><stop id="stop1518" offset="0" style="stop-color:#313131;stop-opacity:1"/><stop id="stop1520" offset="1" style="stop-color:#8199b1;stop-opacity:1"/></linearGradient><linearGradient id="linearGradient1526" x1="40.659" x2="230.544" y1="-15.91" y2="281.456" gradientUnits="userSpaceOnUse" xlink:href="#linearGradient1522"/></defs><metadata id="metadata843"/><g style="display:inline" id="layer3"><rect id="rect1439" width="256" height="256" x="0" y="0" ry="56.5" style="fill:url(#linearGradient1526);fill-opacity:1;fill-rule:evenodd;stroke:none;stroke-width:2.08382487;stroke-linecap:butt;stroke-linejoin:miter;stroke-miterlimit:4;stroke-dasharray:none;stroke-opacity:1"/></g><g style="display:inline" id="layer1"><g id="g1419" transform="translate(3.427737,-9.856878)"><g id="g2169" transform="translate(-2)"><path id="rect1399" d="m 62.660156,99.56055 c -16.879939,6.90159 -28.71875,23.44812 -28.71875,42.86914 0,25.65878 20.655669,46.3164 46.314453,46.3164 h 92.630861 c 25.65878,0 46.3164,-20.65762 46.3164,-46.3164 0,-18.30674 -10.51868,-34.06108 -25.86328,-41.58985" style="fill:none;fill-rule:evenodd;stroke:#fff;stroke-width:20.10000038;stroke-linecap:round;stroke-linejoin:miter;stroke-miterlimit:4;stroke-dasharray:none;stroke-opacity:1"/><g id="g1431" transform="matrix(0.88279965,0,0,0.88279965,13.573905,-10.650244)" style="fill:#fafaff;fill-opacity:1"><path style="fill:#fafaff;fill-opacity:1;fill-rule:evenodd;stroke:none;stroke-width:1px;stroke-linecap:butt;stroke-linejoin:miter;stroke-opacity:1" id="path1410" d="m 124.06736,85.469721 -42.779599,0 21.389799,-37.048216 z" transform="matrix(2.9917526,0,0,2.0279234,-179.18585,-14.231938)"/><rect style="fill:#fafaff;fill-opacity:1;fill-rule:evenodd;stroke:none;stroke-width:1px;stroke-linecap:butt;stroke-linejoin:miter;stroke-opacity:1" id="rect1414" width="61.165" height="27.931" x="97.418" y="152.055"/></g></g></g></g><g id="g1771" style="display:none"><g id="g1769" transform="translate(1.427737,-23.856878)"><g id="g1767" transform="matrix(0.88279965,0,0,0.88279965,13.573905,-4.650244)" style="fill:#fafaff;fill-opacity:1"><g id="g1781"><path id="path1761" d="m 62.486328,90.515625 a 9.0009,9.0009 0 0 0 -3.232422,0.714844 c -20.179763,8.250767 -34.3125,28.120671 -34.3125,51.199221 0,30.48886 24.825132,55.3164 55.314453,55.3164 h 92.630861 c 30.48932,0 55.31641,-24.82708 55.3164,-55.3164 0,-21.75422 -12.55665,-40.6706 -30.89843,-49.669924 A 9.0009,9.0009 0 1 0 189.375,108.91992 c 12.34742,6.05822 20.82813,18.65051 20.82812,33.50977 0,20.82824 -16.48816,37.3164 -37.3164,37.3164 H 80.255859 c -20.828246,0 -37.314453,-16.4877 -37.314453,-37.3164 0,-15.7635 9.544886,-28.98665 23.125,-34.53907 A 9.0009,9.0009 0 0 0 62.486328,90.515625 Z" transform="matrix(1.1327599,0,0,1.1327599,-15.375975,5.2676097)" style="color:#000;font-style:normal;font-variant:normal;font-weight:400;font-stretch:normal;font-size:medium;line-height:normal;font-family:sans-serif;font-variant-ligatures:normal;font-variant-position:normal;font-variant-caps:normal;font-variant-numeric:normal;font-variant-alternates:normal;font-feature-settings:normal;text-indent:0;text-align:start;text-decoration:none;text-decoration-line:none;text-decoration-style:solid;text-decoration-color:#000;letter-spacing:normal;word-spacing:normal;text-transform:none;writing-mode:lr-tb;direction:ltr;text-orientation:mixed;dominant-baseline:auto;baseline-shift:baseline;text-anchor:start;white-space:normal;shape-padding:0;clip-rule:nonzero;display:inline;overflow:visible;visibility:visible;opacity:1;isolation:auto;mix-blend-mode:normal;color-interpolation:sRGB;color-interpolation-filters:linearRGB;solid-color:#000;solid-opacity:1;vector-effect:none;fill:#fff;fill-opacity:1;fill-rule:evenodd;stroke:none;stroke-width:18;stroke-linecap:round;stroke-linejoin:miter;stroke-miterlimit:4;stroke-dasharray:none;stroke-dashoffset:0;stroke-opacity:1;color-rendering:auto;image-rendering:auto;shape-rendering:auto;text-rendering:auto;enable-background:accumulate"/><path id="path1763" d="M 124.06736,85.469721 H 81.287761 L 102.67756,48.421505 Z" transform="matrix(2.9917526,0,0,2.0279234,-179.18585,-14.231938)" style="fill:#fafaff;fill-opacity:1;fill-rule:evenodd;stroke:none;stroke-width:1px;stroke-linecap:butt;stroke-linejoin:miter;stroke-opacity:1"/><path id="rect1765" d="m 97.417633,152.0553 h 61.164737 v 27.93072 H 97.417633 Z" style="fill:#fafaff;fill-opacity:1;fill-rule:evenodd;stroke:none;stroke-width:1px;stroke-linecap:butt;stroke-linejoin:miter;stroke-opacity:1"/></g></g></g></g></svg>